<svg id="Calque_1" xmlns="http://www.w3.org/2000/svg" viewBox="0 0 909.6 177.7"><style>.st0{fill:#f29100}</style><path class="st0" d="M51.7 5.5c-23.3 0-42.2 18-42.2 40.2 0 20.1 15.6 36.8 35.9 39.7V68.7c-11.2-2.6-19.5-11.9-19.5-23.1 0-13.1 11.6-23.8 25.8-23.8 14.3 0 25.8 10.7 25.8 23.8 0 11.3-8.6 20.8-20.1 23.2v16.6C78 82.8 93.9 66 93.9 45.7 93.9 23.5 75 5.5 51.7 5.5zM13.9 89.6h31.5v17.3H13.9zm43.5 0h31.5v17.3H57.4zm87.7 70.2c0 .2-.2.3-.4.3h-3.2l-.4-.3-3.9-11.2-.3-.3h-4.2c-.3 0-.4.1-.4.4v10.9c0 .3-.1.4-.4.4H129c-.3 0-.4-.1-.4-.4V134c0-.3.1-.4.4-.4h8.4c4.6 0 7.6 2.9 7.6 7.6v.4c0 1.5-.8 3.3-2.4 4.8-.8.7-1.5.8-1.5 1.3v.1l4.1 11.8c-.1.1-.1.1-.1.2zm-4-19c0-2.1-1.7-3.8-3.8-3.8h-4.6c-.3 0-.4.1-.4.4v7.1c0 .3.1.4.4.4h4.6c2.1 0 3.8-1.7 3.8-3.8v-.3zm26.9 10.5h-10.5c-.3 0-.4.1-.4.4v1.7c0 2.1 1.6 3.8 3.8 3.8 1 0 1.8-.4 2.3-.9.9-1.1 1.3-1.8 1.6-1.8.1 0 .2 0 .3.1l2.6 1.3c.2.1.3.2.3.3 0 .3-.5 1.4-1.8 2.6-1.3 1.2-3 1.8-5.3 1.8-4.6 0-7.6-2.9-7.6-7.1V148c0-3.8 3.4-7.1 7.6-7.1 4.2 0 7.6 3.3 7.6 7.1v2.9c-.1.3-.2.4-.5.4zm-3.4-3.6c0-1.8-1.8-3.5-3.8-3.5-2 0-3.8 1.7-3.8 3.6 0 .5 0 .6.4.6h6.7c.5 0 .5-.2.5-.7zm16.6-1.5c0 1.7 1.5 2.1 4.6 2.8 4.5.9 6.7 2 6.7 5.3 0 3.8-2.7 6.3-6.9 6.3h-1.3c-4.2 0-6.8-2.6-6.8-4.2 0-.1.1-.2.3-.3l2.4-1.2c.1 0 .2-.1.2-.1.1 0 .2.1.3.3 1 1.3 1.8 2.4 3.6 2.4h1.3c1.9 0 3.2-1.1 3.2-2.4 0-1.8-1.8-2-5.3-2.7-4-.8-5.9-2-5.9-5.2 0-3.7 2.7-6.2 6.8-6.2h1.3c4.2 0 6.8 2.6 6.8 4.2 0 .1-.1.2-.3.3l-2.4 1.2c-.1 0-.2.1-.3.1-.1 0-.2-.1-.3-.3-1-1.3-1.8-2.4-3.6-2.4h-1.3c-2 0-3.1.8-3.1 2.1zm29 14.3c-3.4 0-6.8-2.9-6.8-7.1V145c0-.3-.1-.4-.4-.4h-2.3c-.3 0-.4-.1-.4-.4l.1-1.5 4.8-5.1.3-.1h1.3c.3 0 .4.1.4.4v2.9c0 .3.1.4.4.4h2.9c.3 0 .4.1.4.4v2.5c0 .3-.1.4-.4.4h-2.9c-.3 0-.4.1-.4.4v8.4c0 .9.3 1.6.9 2.4.4.5 1.3.8 2.5 1.3.2.1.3.2.3.4v2.5c.1.6-.1.6-.7.6zm23.3-.3H231c-.3 0-.4-.1-.4-.4v-.5c0-.3-.1-.5-.3-.5-.6 0-1.8 1.4-3.7 1.4H225c-3.3 0-5.6-2.2-5.6-5.3v-.3c0-3 2.3-5.2 5.6-5.2h4.8c.3 0 .4-.1.4-.4v-1.2c-.1-2.1-1.6-3.7-3.8-3.7-.9 0-1.8.4-2.3.9-.9 1-1.3 1.7-1.6 1.7-.1 0-.2 0-.3-.1l-2.6-1.3c-.2-.1-.3-.2-.3-.3 0-.3.5-1.4 1.9-2.6 1.2-1 2.9-1.6 5-1.6 4.6 0 7.5 2.8 7.6 7v11.8c.1.4 0 .6-.3.6zm-3.3-7.4c0-.3-.2-.4-.4-.4H225c-1 0-1.8.8-1.8 1.8v.7c0 1.1.8 1.9 1.8 1.9h1.6c1.6 0 2.9-1.1 3.6-3v-1zm28.3 7.4H256c-.3 0-.4-.1-.4-.4v-.5c0-.3-.1-.5-.3-.5-.5 0-1.8 1.4-4.2 1.4-4.2 0-7.3-2.9-7.3-7.1v-11.3c0-.3.1-.4.4-.4h2.9c.3 0 .4.1.4.4V153c0 2.1 1.6 3.8 3.8 3.8 2.1 0 3.8-1.7 3.8-3.8v-11.3c0-.3.1-.4.4-.4h2.9c.3 0 .4.1.4.4v18.1c.1.2 0 .4-.3.4zm21.1-14.8c-.4 0-1-.3-2.1-.3-2.4 0-3.8 1.4-3.8 3.7v10.9c0 .3-.1.4-.4.4h-2.9c-.3 0-.4-.1-.4-.4v-18.1c0-.3.1-.4.4-.4h2.5c.3 0 .4.1.4.4v1.3c0 .3.2.5.4.5.4 0 1.7-2.3 3.9-2.3 1.6 0 2.2 0 2.2.5v3.2c.1.4 0 .6-.2.6zm21.8 14.8h-2.5c-.3 0-.4-.1-.4-.4v-.5c0-.3-.1-.5-.3-.5-.6 0-1.8 1.4-3.7 1.4h-1.6c-3.3 0-5.6-2.2-5.6-5.3v-.3c0-3 2.3-5.2 5.6-5.2h4.8c.3 0 .4-.1.4-.4v-1.2c-.1-2.1-1.6-3.7-3.8-3.7-.9 0-1.8.4-2.3.9-.9 1-1.3 1.7-1.6 1.7-.1 0-.2 0-.3-.1l-2.6-1.3c-.2-.1-.3-.2-.3-.3 0-.3.5-1.4 1.9-2.6 1.2-1 2.9-1.6 5-1.6 4.6 0 7.5 2.8 7.6 7v11.8c.2.4 0 .6-.3.6zm-3.3-7.4c0-.3-.2-.4-.4-.4h-4.8c-1 0-1.8.8-1.8 1.8v.7c0 1.1.8 1.9 1.8 1.9h1.6c1.6 0 2.9-1.1 3.6-3v-1zm21.9 7.7c-3.4 0-6.8-2.9-6.8-7.1V145c0-.3-.1-.4-.4-.4h-2.3c-.3 0-.4-.1-.4-.4l.1-1.5 4.8-5.1.3-.1h1.3c.3 0 .4.1.4.4v2.9c0 .3.1.4.4.4h2.9c.3 0 .4.1.4.4v2.5c0 .3-.1.4-.4.4h-2.9c-.3 0-.4.1-.4.4v8.4c0 .9.3 1.6.9 2.4.4.5 1.3.8 2.5 1.3.2.1.3.2.3.4v2.5c.1.6-.1.6-.7.6zm24.1-9.2h-10.5c-.3 0-.4.1-.4.4v1.7c0 2.1 1.6 3.8 3.8 3.8 1 0 1.8-.4 2.3-.9.9-1.1 1.3-1.8 1.6-1.8.1 0 .2 0 .3.1l2.6 1.3c.2.1.3.2.3.3 0 .3-.5 1.4-1.8 2.6-1.3 1.2-3 1.8-5.3 1.8-4.6 0-7.6-2.9-7.6-7.1V148c0-3.8 3.4-7.1 7.6-7.1 4.2 0 7.6 3.3 7.6 7.1v2.9c0 .3-.2.4-.5.4zm-3.3-3.6c0-1.8-1.8-3.5-3.8-3.5-2 0-3.8 1.7-3.8 3.6 0 .5 0 .6.4.6h6.7c.4 0 .5-.2.5-.7zm27.8 12.5h-2.5c-.3 0-.4-.1-.4-.4v-.5c0-.3-.1-.5-.3-.5-.5 0-1.8 1.4-4.2 1.4-4.2 0-7.3-2.9-7.3-7.1v-11.3c0-.3.1-.4.4-.4h2.9c.3 0 .4.1.4.4V153c0 2.1 1.6 3.8 3.8 3.8 2.1 0 3.8-1.7 3.8-3.8v-11.3c0-.3.1-.4.4-.4h2.9c.3 0 .4.1.4.4v18.1c.1.2 0 .4-.3.4zm21.2-14.8c-.4 0-1-.3-2.1-.3-2.4 0-3.8 1.4-3.8 3.7v10.9c0 .3-.1.4-.4.4h-2.9c-.3 0-.4-.1-.4-.4v-18.1c0-.3.1-.4.4-.4h2.5c.3 0 .4.1.4.4v1.3c0 .3.2.5.4.5.4 0 1.7-2.3 3.9-2.3 1.6 0 2.2 0 2.2.5v3.2c0 .4-.1.6-.2.6zm11.5.8c0 1.7 1.5 2.1 4.6 2.8 4.5.9 6.7 2 6.7 5.3 0 3.8-2.7 6.3-6.9 6.3h-1.3c-4.2 0-6.8-2.6-6.8-4.2 0-.1.1-.2.3-.3l2.4-1.2c.1 0 .2-.1.2-.1.1 0 .2.1.3.3 1 1.3 1.8 2.4 3.6 2.4h1.3c1.9 0 3.2-1.1 3.2-2.4 0-1.8-1.8-2-5.3-2.7-4-.8-5.9-2-5.9-5.2 0-3.7 2.7-6.2 6.8-6.2h1.3c4.2 0 6.8 2.6 6.8 4.2 0 .1-.1.2-.3.3l-2.4 1.2c-.1 0-.2.1-.3.1-.1 0-.2-.1-.3-.3-1-1.3-1.8-2.4-3.6-2.4h-1.3c-2 0-3.1.8-3.1 2.1zm23.5 17.6c-1.1 1.3-2.1 1.8-2.5 1.8-.1 0-.2-.1-.3-.3l-.6-1.2v-.1c0-.6 1.8-1.3 1.8-3.8 0-.5-.1-.7-.4-.7h-.5c-.3 0-.4-.1-.4-.4v-3c0-.3.1-.4.4-.4h3.8c.3 0 .4.1.4.4v2.6c-.1 2.1-.6 3.9-1.7 5.1zm42.4-3.6h-2.9c-.3 0-.4-.1-.4-.4v-10.9c0-.3-.2-.4-.4-.4h-8.6c-.3 0-.4.1-.4.4v10.9c0 .3-.1.4-.4.4h-2.9c-.3 0-.4-.1-.4-.4v-25.6c0-.3.1-.4.4-.4h2.9c.3 0 .4.1.4.4v10.5c0 .3.1.4.4.4h8.6c.3 0 .4-.1.4-.4v-10.5c0-.3.1-.4.4-.4h2.9c.3 0 .4.1.4.4v25.6c.1.2-.1.4-.4.4zm18.9.4c-4.6 0-7.6-2.9-7.6-7.1V148c0-4.3 3-7.1 7.6-7.1s7.6 2.9 7.6 7.1v5.5c0 4.2-3 7.1-7.6 7.1zm5-22c0 .2-.2.3-.5.3h-2l-.3-.2-1.8-2.9c-.1-.2-.2-.3-.3-.3s-.2.1-.3.3l-1.8 2.9-.3.2h-2c-.3 0-.5-.1-.5-.3 0-.1.1-.2.2-.3l3.7-5.3.3-.2h1.5l.3.2 3.7 5.3c0 .1.1.2.1.3zm-1.2 9.4c0-2.1-1.7-3.8-3.8-3.8-2.1 0-3.8 1.7-3.8 3.8v5.5c0 2.1 1.6 3.8 3.8 3.8 2.1 0 3.8-1.7 3.8-3.8V148zm21.8 12.5c-3.4 0-6.8-2.9-6.8-7.1V145c0-.3-.1-.4-.4-.4h-2.3c-.3 0-.4-.1-.4-.4l.1-1.5 4.8-5.1.3-.1h1.3c.3 0 .4.1.4.4v2.9c0 .3.1.4.4.4h2.9c.3 0 .4.1.4.4v2.5c0 .3-.1.4-.4.4h-2.9c-.3 0-.4.1-.4.4v8.4c0 .9.3 1.6.9 2.4.4.5 1.3.8 2.5 1.3.2.1.3.2.3.4v2.5c.1.6-.1.6-.7.6zm24.1-9.2h-10.5c-.3 0-.4.1-.4.4v1.7c0 2.1 1.6 3.8 3.8 3.8 1 0 1.8-.4 2.3-.9.9-1.1 1.3-1.8 1.6-1.8.1 0 .2 0 .3.1l2.6 1.3c.2.1.3.2.3.3 0 .3-.5 1.4-1.8 2.6-1.3 1.2-3 1.8-5.3 1.8-4.6 0-7.6-2.9-7.6-7.1V148c0-3.8 3.4-7.1 7.6-7.1 4.2 0 7.6 3.3 7.6 7.1v2.9c-.1.3-.2.4-.5.4zm-3.3-3.6c0-1.8-1.8-3.5-3.8-3.5-2 0-3.8 1.7-3.8 3.6 0 .5 0 .6.4.6h6.7c.4 0 .5-.2.5-.7zm16.6 12.5h-2.9c-.3 0-.4-.1-.4-.4v-25.6c0-.3.1-.4.4-.4h2.9c.3 0 .4.1.4.4v25.6c0 .2-.1.4-.4.4zm13.4-22.3c-1.3 0-2.3-1-2.3-2.3 0-1.3 1-2.3 2.3-2.3 1.3 0 2.3 1 2.3 2.3 0 1.3-1 2.3-2.3 2.3zm1.5 22.3h-2.9c-.3 0-.4-.1-.4-.4v-18.1c0-.3.1-.4.4-.4h2.9c.3 0 .4.1.4.4v18.1c0 .2-.1.4-.4.4zm24.8-8.9h-10.5c-.3 0-.4.1-.4.4v1.7c0 2.1 1.6 3.8 3.8 3.8 1 0 1.8-.4 2.3-.9.9-1.1 1.3-1.8 1.6-1.8.1 0 .2 0 .3.1l2.6 1.3c.2.1.3.2.3.3 0 .3-.5 1.4-1.8 2.6-1.3 1.2-3 1.8-5.3 1.8-4.6 0-7.6-2.9-7.6-7.1V148c0-3.8 3.4-7.1 7.6-7.1 4.2 0 7.6 3.3 7.6 7.1v2.9c-.1.3-.2.4-.5.4zm-3.4-3.6c0-1.8-1.8-3.5-3.8-3.5-2 0-3.8 1.7-3.8 3.6 0 .5 0 .6.4.6h6.7c.5 0 .5-.2.5-.7zm22.9-2.3c-.4 0-1-.3-2.1-.3-2.4 0-3.8 1.4-3.8 3.7v10.9c0 .3-.1.4-.4.4h-2.9c-.3 0-.4-.1-.4-.4v-18.1c0-.3.1-.4.4-.4h2.5c.3 0 .4.1.4.4v1.3c0 .3.2.5.4.5.4 0 1.7-2.3 3.9-2.3 1.6 0 2.2 0 2.2.5v3.2c.1.4 0 .6-.2.6zm11.6.8c0 1.7 1.5 2.1 4.6 2.8 4.5.9 6.7 2 6.7 5.3 0 3.8-2.7 6.3-6.9 6.3H623c-4.2 0-6.8-2.6-6.8-4.2 0-.1.1-.2.3-.3l2.4-1.2c.1 0 .2-.1.2-.1.1 0 .2.1.3.3 1 1.3 1.8 2.4 3.6 2.4h1.3c1.9 0 3.2-1.1 3.2-2.4 0-1.8-1.8-2-5.3-2.7-4-.8-5.9-2-5.9-5.2 0-3.7 2.7-6.2 6.8-6.2h1.3c4.2 0 6.8 2.6 6.8 4.2 0 .1-.1.2-.3.3l-2.4 1.2c-.1 0-.2.1-.3.1-.1 0-.2-.1-.3-.3-1-1.3-1.8-2.4-3.6-2.4H623c-2 0-3.1.8-3.1 2.1zm23.5 17.6c-1.1 1.3-2.1 1.8-2.5 1.8-.1 0-.2-.1-.3-.3l-.6-1.2v-.1c0-.6 1.8-1.3 1.8-3.8 0-.5-.1-.7-.4-.7h-.5c-.3 0-.4-.1-.4-.4v-3c0-.3.1-.4.4-.4h3.8c.3 0 .4.1.4.4v2.6c-.1 2.1-.6 3.9-1.7 5.1zm33.7-3.9c-.1.2-.2.3-.4.3h-2.3c-.2 0-.3-.1-.4-.3l-7.8-25.6v-.2c0-.3.2-.4.5-.4h3.2c.3 0 .4.1.4.3l5.5 19.2 5.3-19.2c0-.2.2-.3.4-.3h3.2c.3 0 .5.1.5.4v.2l-8.1 25.6zm21.6.7c-4.6 0-7.6-2.9-7.6-7.1V148c0-4.3 3-7.1 7.6-7.1s7.6 2.9 7.6 7.1v5.5c0 4.2-3 7.1-7.6 7.1zm3.8-12.6c0-2.1-1.7-3.8-3.8-3.8-2.1 0-3.8 1.7-3.8 3.8v5.5c0 2.1 1.6 3.8 3.8 3.8 2.1 0 3.8-1.7 3.8-3.8V148zm20.8 22c-2 0-3.6-.5-4.6-1.2-1.6-1.2-2.4-2.4-2.4-3.1 0-.1.1-.2.3-.3l2.6-1.3c.1 0 .2-.1.2-.1.2 0 .3.1.4.3 1 1.3 1.6 2.4 3.5 2.4 2.1 0 3.8-1.7 3.8-3.8v-3.5c0-.3-.2-.5-.3-.5-.5 0-1.5 1.2-3.4 1.2-4.6 0-7.6-2.9-7.6-7.1v-11.3c0-.3.1-.4.4-.4h2.9c.3 0 .4.1.4.4V153c0 2.1 1.6 3.8 3.8 3.8 2.1 0 3.8-1.7 3.8-3.8v-11.3c0-.3.1-.4.4-.4h2.9c.3 0 .4.1.4.4v20.8c0 4.6-2.8 7.5-7.5 7.5zm31.9-9.8h-2.5c-.3 0-.4-.1-.4-.4v-.5c0-.3-.1-.5-.3-.5-.6 0-1.8 1.4-3.7 1.4h-1.6c-3.3 0-5.6-2.2-5.6-5.3v-.3c0-3 2.3-5.2 5.6-5.2h4.8c.3 0 .4-.1.4-.4v-1.2c-.1-2.1-1.6-3.7-3.8-3.7-.9 0-1.8.4-2.3.9-.9 1-1.3 1.7-1.6 1.7-.1 0-.2 0-.3-.1l-2.6-1.3c-.2-.1-.3-.2-.3-.3 0-.3.5-1.4 1.9-2.6 1.2-1 2.9-1.6 5-1.6 4.6 0 7.5 2.8 7.6 7v11.8c.1.4 0 .6-.3.6zm-3.3-7.4c0-.3-.2-.4-.4-.4h-4.8c-1 0-1.8.8-1.8 1.8v.7c0 1.1.8 1.9 1.8 1.9h1.6c1.6 0 2.9-1.1 3.6-3v-1zm24.6 16.8h-5.7c-3.4 0-5.7-2.2-5.7-5.3v-.4c0-1.1.4-2.1 1-2.7.9-1 1.6-1.3 1.6-1.6 0-.4-.6-1.1-.6-2.3 0-1.7.8-2.4.8-2.7 0-.2-.6-.8-1.6-2-.6-.8-1.1-2.2-1.1-3.7v-.4c0-4 3.2-7.1 7.6-7.1 2.1 0 3.3 1.4 3.9 1.4.2 0 .3-.2.3-.5v-.5c0-.3.1-.4.4-.4h2.5c.3 0 .4.1.4.4v7.1c0 4-3.2 7.1-7.6 7.1-.3 0-.7 0-1.2-.1-.7.4-1.1.9-1.1 1.4 0 .7.4 1.1 1.1 1.4h5c3.4 0 5.7 2.3 5.7 5.3v.4c0 2.9-2.3 5.2-5.7 5.2zm0-21.2c0-2.1-1.7-3.8-3.8-3.8-2.1 0-3.8 1.7-3.8 3.8v.4c0 2.1 1.6 3.8 3.8 3.8 2.1 0 3.8-1.7 3.8-3.8v-.4zm1.9 15.5c0-1-.9-1.9-1.9-1.9h-5.7c-1 0-1.9.9-1.9 1.9v.4c0 1 .8 1.9 1.9 1.9h5.7c1 0 1.9-.9 1.9-1.9v-.4zm25.8-12.6h-10.5c-.3 0-.4.1-.4.4v1.7c0 2.1 1.6 3.8 3.8 3.8 1 0 1.8-.4 2.3-.9.9-1.1 1.3-1.8 1.6-1.8.1 0 .2 0 .3.1l2.6 1.3c.2.1.3.2.3.3 0 .3-.5 1.4-1.8 2.6-1.3 1.2-3 1.8-5.3 1.8-4.6 0-7.6-2.9-7.6-7.1V148c0-3.8 3.4-7.1 7.6-7.1 4.2 0 7.6 3.3 7.6 7.1v2.9c0 .3-.2.4-.5.4zm-3.3-3.6c0-1.8-1.8-3.5-3.8-3.5-2 0-3.8 1.7-3.8 3.6 0 .5 0 .6.4.6h6.7c.4 0 .5-.2.5-.7zm27.8 12.5h-2.5c-.3 0-.4-.1-.4-.4v-.5c0-.3-.1-.5-.3-.5-.5 0-1.8 1.4-4.2 1.4-4.2 0-7.3-2.9-7.3-7.1v-11.3c0-.3.1-.4.4-.4h2.9c.3 0 .4.1.4.4V153c0 2.1 1.6 3.8 3.8 3.8 2.1 0 3.8-1.7 3.8-3.8v-11.3c0-.3.1-.4.4-.4h2.9c.3 0 .4.1.4.4v18.1c.1.2 0 .4-.3.4zm21.1-14.8c-.4 0-1-.3-2.1-.3-2.4 0-3.8 1.4-3.8 3.7v10.9c0 .3-.1.4-.4.4h-2.9c-.3 0-.4-.1-.4-.4v-18.1c0-.3.1-.4.4-.4h2.5c.3 0 .4.1.4.4v1.3c0 .3.2.5.4.5.4 0 1.7-2.3 3.9-2.3 1.6 0 2.2 0 2.2.5v3.2c.1.4 0 .6-.2.6zm11.6.8c0 1.7 1.5 2.1 4.6 2.8 4.5.9 6.7 2 6.7 5.3 0 3.8-2.7 6.3-6.9 6.3h-1.3c-4.2 0-6.8-2.6-6.8-4.2 0-.1.1-.2.3-.3l2.4-1.2c.1 0 .2-.1.2-.1.1 0 .2.1.3.3 1 1.3 1.8 2.4 3.6 2.4h1.3c1.9 0 3.2-1.1 3.2-2.4 0-1.8-1.8-2-5.3-2.7-4-.8-5.9-2-5.9-5.2 0-3.7 2.7-6.2 6.8-6.2h1.3c4.2 0 6.8 2.6 6.8 4.2 0 .1-.1.2-.3.3l-2.4 1.2c-.1 0-.2.1-.3.1-.1 0-.2-.1-.3-.3-1-1.3-1.8-2.4-3.6-2.4h-1.3c-2 0-3.1.8-3.1 2.1zm-725.3-39.6h-7.6v-68h7.6v68zm21-23.1v4.2c0 8.4 4.2 13 10.5 13 5.9 0 9.7-3.8 10.1-10.1h7.6c-.4 9.2-7.1 16.8-17.6 16.8-10.5 0-18.1-8-18.1-18.5V73.8c0-10.5 7.6-18.5 18.1-18.5 10.5 0 18.1 8 18.1 18.5v9.7h-28.7zm21-8.4c0-8.4-4.2-13-10.5-13s-10.5 4.6-10.5 13v2.5h21v-2.5zm36.1 32.3c-10.1 0-18.5-5.9-18.5-16h7.6c0 6.3 5.5 9.2 10.9 9.2 5 0 10.1-3 10.1-8 0-11.8-26.9-4.2-26.9-23.1 0-8 8-14.3 16.4-14.3 9.7 0 16.8 6.7 16.8 16H223c0-5.9-4.2-9.2-9.2-9.2-4.6 0-9.2 2.9-9.2 7.6 0 11.8 26.9 4.2 26.9 23.1-.1 8-7.6 14.7-17.3 14.7zm88.2-21.8c0 12.6-8 22.3-20.6 22.3s-21.4-9.7-21.4-22.3v-21c0-12.6 8.8-22.3 21.4-22.3s20.6 9.7 20.6 22.3H294c-.4-8.8-4.7-14.7-12.2-14.7-8 0-13 6.3-13 16.8v16.8c0 10.5 5 16.8 13 16.8 7.5 0 11.8-5.9 12.2-14.7h8.4zm47.4 3.3c0 10.5-7.6 18.5-18.1 18.5-10.5 0-18.1-8-18.1-18.5V73.8c0-10.5 7.6-18.5 18.1-18.5 10.5 0 18.1 8 18.1 18.5v15.1zm-7.6-1.2V75.1c0-8.4-4.2-13-10.5-13s-10.5 4.6-10.5 13v12.6c0 8.4 4.2 13 10.5 13s10.5-4.6 10.5-13zm56.3 18.9h-34.4v-63h8V99h26.5v7.6z"/><path class="st0" d="M388.9 91.9h-7.6V43.6h7.6v48.3zm31-8.4v4.2c0 8.4 4.2 13 10.5 13 5.9 0 9.7-3.8 10.1-10.1h7.6c-.4 9.2-7.1 16.8-17.6 16.8-10.5 0-18.1-8-18.1-18.5V73.8c0-10.5 7.6-18.5 18.1-18.5 10.5 0 18.1 8 18.1 18.5v9.7h-28.7zm21-8.4c0-8.4-4.2-13-10.5-13s-10.5 4.6-10.5 13v2.5h21v-2.5zM496 88.9c0 10.5-7.1 18.5-17.6 18.5-10.5 0-18.1-8-18.1-18.5V73.8c0-10.5 7.6-18.5 18.1-18.5 10.5 0 17.6 8 17.6 18.5h-7.6c0-6.3-3.8-11.8-10.1-11.8s-10.5 4.6-10.5 13v12.6c0 8.4 4.2 13 10.5 13s10.1-5.5 10.1-11.8h7.6zm6.3-32.7h8V43.6h7.1v12.6h11.3V62h-11.3v29.4c0 6.7 2.5 9.2 7.6 9.2h4.2v5.9c-1.3.3-3.4.4-5.5.4-8.8 0-13.9-5.5-13.9-14.7V62h-7.6v-5.8zM548 46.1h-7.6v-7.6h7.6v7.6zm0 60.5h-7.6V56.2h7.6v50.4zm49.6-17.7c0 10.5-7.6 18.5-18.1 18.5-10.5 0-18.1-8-18.1-18.5V73.8c0-10.5 7.6-18.5 18.1-18.5 10.5 0 18.1 8 18.1 18.5v15.1zm-7.6-1.2V75.1c0-8.4-4.2-13-10.5-13s-10.5 4.6-10.5 13v12.6c0 8.4 4.2 13 10.5 13s10.5-4.6 10.5-13zm78.6-12.6v31.5H661V56.2h6.7v8.1c2.7-5.5 8.2-9 13.9-9 9.2 0 14.7 7.6 14.7 18.1v33.2h-7.6v-32c0-8.4-3.4-12.2-9.7-12.2-6.2.1-10.4 4.3-10.4 12.7zm78.5 31.5h-35.3V56.2h35.3v7.6h-27.3v13.7h24.8V85h-24.8v14h27.3v7.6zm40.3-18.9V56.2h7.6v50.4h-6.7v-8.1c-2.8 5.5-8.2 8.9-13.9 8.9-8.8 0-14.7-6.7-14.7-17.2v-34h7.6V89c0 8.4 3.8 11.3 9.7 11.3 6.2 0 10.4-4.2 10.4-12.6zm44.5-32v7.1h-.8c-6.7 0-13.4 3.8-13.4 13v30.7h-7.6V56.2h6.7V64c2.9-5 8-8.2 13.4-8.2h1.7zm24.8 51.7c-10.1 0-18.5-5.9-18.5-16h7.6c0 6.3 5.5 9.2 10.9 9.2 5 0 10.1-3 10.1-8 0-11.8-26.9-4.2-26.9-23.1 0-8 8-14.3 16.4-14.3 9.7 0 16.8 6.7 16.8 16h-7.6c0-5.9-4.2-9.2-9.2-9.2-4.6 0-9.2 2.9-9.2 7.6 0 11.8 26.9 4.2 26.9 23.1-.1 8-7.6 14.7-17.3 14.7zm-218-51.2v37.3l-20.1-37.3H611v50.4h7.6V69.4l20.1 37.2h7.6V56.2zm251.9 14.2h-.2c-4.6 0-7.6-2.9-7.6-7.1v-.8c0-4.2 2.9-7.1 7.6-7.1h.2c4.6 0 7.6 2.9 7.6 7.1v.8c-.1 4.2-3 7.1-7.6 7.1zm6.3-7.9c0-3.5-2.5-5.9-6.3-5.9h-.2c-3.8 0-6.3 2.4-6.3 5.9v.8c0 3.5 2.5 5.9 6.3 5.9h.2c3.8 0 6.3-2.4 6.3-5.9v-.8zm-4.4 1c-.1.1-.2.2-.2.3 0 .2.1.3.2.5l.7 1.4c.2.3.3.5.3.6 0 .2-.2.3-.5.3h-.7c-.2 0-.3-.1-.4-.3l-1-2.2c-.1-.2-.2-.3-.4-.3h-1.1c-.3 0-.4.1-.4.4v1.9c0 .3-.1.4-.4.4h-.5c-.3 0-.4-.1-.4-.4V59c0-.3.1-.4.4-.4h2.6c1.6 0 2.6 1.1 2.6 2.6v.2c.3.8-.3 1.6-.8 2.1zm-.3-2.2c0-.8-.5-1.3-1.3-1.3h-1.3c-.3 0-.4.1-.4.4v2c0 .3.1.4.4.4h1.3c.8 0 1.3-.6 1.3-1.3v-.2z"/></svg>